<?xml version="1.0" encoding="utf-8"?>
<!-- Generator: Adobe Illustrator 22.0.0, SVG Export Plug-In . SVG Version: 6.00 Build 0)  -->
<svg version="1.1" id="Camada_1" xmlns="http://www.w3.org/2000/svg" xmlns:xlink="http://www.w3.org/1999/xlink" x="0px" y="0px"
	 viewBox="0 0 600 99" style="enable-background:new 0 0 600 99;" xml:space="preserve">
<style type="text/css">
	.st0{fill:none;stroke:#4A8250;stroke-linecap:round;stroke-miterlimit:10;}
	.st1{fill:none;stroke:#B2BF4B;stroke-linecap:round;stroke-miterlimit:10;}
</style>
<g>
	<path class="st0" d="M124.4,45.2c5.7-3.3,2.5-13.8-4.1-14.4c-6.6-0.7-12,6.7-11,13.2c1.1,6.5,7,11.4,13.4,13.2
		c6.4,1.7,13.2,0.8,19.7-0.4c27.4-5.4,53.3-17.3,80.6-22.9s58.6-3.9,79.5,14.6"/>
	<path class="st1" d="M154.5,53.7c-6.1,4.5-8.1,13.7-4.5,20.3c7.1-3.2,10.4-13,6.7-19.9"/>
	<path class="st1" d="M203,38.7c-2.4-2.4-4.6-5.3-6.1-8.3c-0.8-1.7-1.4-3.6-1.7-5.4c-0.1-0.5,0-5-0.1-5c6.3,3.2,9.7,11.3,7.6,18"/>
</g>
<g>
	<path class="st0" d="M461.3,51.8c-5.7,3.3-2.5,13.8,4.1,14.4c6.6,0.7,12-6.7,11-13.2c-1.1-6.5-7-11.4-13.4-13.2
		c-6.4-1.7-13.2-0.8-19.7,0.4c-27.4,5.4-53.3,17.3-80.6,22.9s-58.6,3.9-79.5-14.6"/>
	<path class="st1" d="M431.2,43.2c6.1-4.5,8.1-13.7,4.5-20.3c-7.1,3.2-10.4,13-6.7,19.9"/>
	<path class="st1" d="M382.8,58.3c2.4,2.4,4.6,5.3,6.1,8.3c0.8,1.7,1.4,3.6,1.7,5.4c0.1,0.5,0,5,0.1,5c-6.3-3.2-9.7-11.3-7.6-18"/>
</g>
</svg>
